<svg xmlns="http://www.w3.org/2000/svg" viewBox="0 0 900 900">
  <defs>
    <radialGradient id="glow" cx="50%" cy="50%" r="50%">
      <stop offset="0" stop-color="#fff" stop-opacity="1"/>
      <stop offset="0.08" stop-color="#fff" stop-opacity="0.68"/>
      <stop offset="0.22" stop-color="#fff" stop-opacity="0.22"/>
      <stop offset="1" stop-color="#fff" stop-opacity="0"/>
    </radialGradient>
    <filter id="soft" x="-40%" y="-40%" width="180%" height="180%">
      <feGaussianBlur stdDeviation="2.2" result="blur"/>
      <feColorMatrix in="blur" type="matrix" values="1.7 0 0 0 0  0 1.7 0 0 0  0 0 1.7 0 0  0 0 0 1 0"/>
      <feBlend in="SourceGraphic" mode="screen"/>
    </filter>
  </defs>
  <rect width="900" height="900" fill="#000"/>
  <circle cx="450" cy="450" r="210" fill="none" stroke="#fff" stroke-opacity="0.34" stroke-width="3" filter="url(#soft)"/>
  <circle cx="450" cy="450" r="75" fill="none" stroke="#fff" stroke-opacity="0.62" stroke-width="3" filter="url(#soft)"/>
  <circle cx="450" cy="450" r="24" fill="url(#glow)" opacity="0.95"/>
  <g fill="none" stroke="#fff" stroke-linecap="round" filter="url(#soft)">
    <path d="M450 451 C350 376 318 281 244 183" stroke-opacity="0.26" stroke-width="1.6"/>
    <path d="M452 448 C541 340 641 278 779 208" stroke-opacity="0.21" stroke-width="1.3"/>
    <path d="M453 451 C604 488 711 558 845 622" stroke-opacity="0.23" stroke-width="1.4"/>
    <path d="M447 451 C318 548 222 634 83 742" stroke-opacity="0.20" stroke-width="1.2"/>
    <path d="M447 450 C292 441 178 387 48 338" stroke-opacity="0.22" stroke-width="1.2"/>
    <path d="M449 450 C475 606 516 731 558 887" stroke-opacity="0.18" stroke-width="1.2"/>
    <path d="M242 391 C331 345 391 324 450 450 C548 351 657 351 752 403" stroke-opacity="0.28" stroke-width="2"/>
    <path d="M260 510 C339 576 418 582 450 450 C507 558 606 594 735 552" stroke-opacity="0.25" stroke-width="1.8"/>
    <path d="M293 294 C385 252 527 253 626 310" stroke-opacity="0.2" stroke-width="1.2"/>
    <path d="M284 623 C410 679 560 661 657 576" stroke-opacity="0.2" stroke-width="1.2"/>
  </g>
  <g fill="#fff" opacity="0.82" filter="url(#soft)">
    <circle cx="326" cy="343" r="3.2"/><circle cx="359" cy="325" r="2.4"/><circle cx="395" cy="333" r="2.8"/><circle cx="429" cy="366" r="2.2"/>
    <circle cx="488" cy="357" r="2.6"/><circle cx="545" cy="328" r="3"/><circle cx="591" cy="345" r="2.2"/><circle cx="628" cy="390" r="2.8"/>
    <circle cx="645" cy="485" r="2.4"/><circle cx="612" cy="545" r="3.2"/><circle cx="552" cy="585" r="2.4"/><circle cx="486" cy="612" r="2.7"/>
    <circle cx="399" cy="596" r="2.4"/><circle cx="339" cy="558" r="3.1"/><circle cx="292" cy="496" r="2.5"/><circle cx="285" cy="422" r="2.2"/>
    <circle cx="450" cy="450" r="5"/><circle cx="431" cy="432" r="2.7"/><circle cx="473" cy="431" r="2.4"/><circle cx="468" cy="470" r="2.1"/><circle cx="432" cy="473" r="2.3"/>
  </g>
  <g fill="none" stroke="#fff" stroke-opacity="0.16" stroke-width="0.8" filter="url(#soft)">
    <path d="M326 343 L359 325 L395 333 L429 366 L450 450 L488 357 L545 328 L591 345 L628 390"/>
    <path d="M450 450 L645 485 L612 545 L552 585 L486 612 L399 596 L339 558 L292 496 L285 422 L326 343"/>
    <path d="M431 432 L450 450 L473 431 M450 450 L468 470 L432 473"/>
  </g>
</svg>
